<svg xmlns="http://www.w3.org/2000/svg" width="23.385" height="36" viewBox="0 0 23.385 36">
  <g id="bill" transform="translate(-61)">
    <path id="Path_16" data-name="Path 16" d="M84.2,34.945V3.164L81.039,0,78.93,2.109,76.82,0,74.711,2.109,72.6,0,70.492,2.109,68.383,0,66.273,2.109,64.164,0,61,3.164V30.728A5.279,5.279,0,0,0,66.273,36H84.384A3.138,3.138,0,0,1,84.2,34.945Zm-4.219-7.383H65.219V25.453H79.984ZM73.656,17.016v2.109H67.328V17.016Zm-6.328-2.109V12.8h6.328v2.109Zm6.328,6.328v2.109H67.328V21.234Zm4.219-4.219v2.109H75.766V17.016Zm-2.109-2.109V12.8h2.109v2.109Zm2.109,6.328v2.109H75.766V21.234Zm2.109-10.547H65.219V8.578H79.984Z" transform="translate(0)"/>
  </g>
</svg>
