<svg xmlns="http://www.w3.org/2000/svg" width="89.531" height="103.354" viewBox="0 0 89.531 103.354">
  <g id="close2" transform="translate(-5972 1841)">
    <path id="Subtraction_1" data-name="Subtraction 1" d="M39.469,91.3h-26.1A13.388,13.388,0,0,1,0,77.932V8.024L8.024,0l5.349,5.349L18.724,0l5.349,5.349L29.42,0l5.353,5.349L40.123,0l5.35,5.349L50.823,0l8.016,8.024v32.9A27.532,27.532,0,0,0,39.466,91.3Z" transform="translate(5972 -1841)"/>
    <ellipse id="Ellipse_3" data-name="Ellipse 3" cx="27.526" cy="27.526" rx="27.526" ry="27.526" transform="translate(6060.294 -1791.802) rotate(106)" fill="none" stroke="#000" stroke-width="2"/>
    <path id="Path_17" data-name="Path 17" d="M8.325,8.786l9.016,9.982L38.592,1.38" transform="translate(6004 -1783)" fill="none" stroke="#000" stroke-linecap="round" stroke-linejoin="round" stroke-width="5"/>
  </g>
</svg>
