<svg xmlns="http://www.w3.org/2000/svg" width="103.5" height="93.21" viewBox="0 0 103.5 93.21">
  <g id="close3" transform="translate(-61 0)">
    <path id="Subtraction_2" data-name="Subtraction 2" d="M-5643.453,1934.211h-46.894A13.668,13.668,0,0,1-5704,1920.56v-71.367l8.192-8.193,5.461,5.461,5.461-5.461,5.462,5.461,5.461-5.461,5.461,5.461,5.461-5.461,5.462,5.461,5.461-5.461,6.107,6.107a41.109,41.109,0,0,0-29.8,16.1h-17.267v5.461h13.768a40.077,40.077,0,0,0-2.4,5.461h-5.9v5.463h4.4a40.194,40.194,0,0,0-.707,5.461h-3.689v5.461h3.728a40.245,40.245,0,0,0,.788,5.461h-4.516v5.461h6.109A40.187,40.187,0,0,0-5679,1906.9h-14.08v5.461h17.711a41.022,41.022,0,0,0,31.442,15.625v3.49a8.1,8.1,0,0,0,.469,2.73Z" transform="translate(5765 -1841)"/>
    <ellipse id="Ellipse_5" data-name="Ellipse 5" cx="41" cy="40.5" rx="41" ry="40.5" transform="translate(81 6)" fill="none" stroke="#000" stroke-width="3"/>
    <path id="Path_19" data-name="Path 19" d="M8.325,13.1,22.6,28.905,56.24,1.38" transform="translate(90.175 31.12)" fill="none" stroke="#000" stroke-linecap="round" stroke-linejoin="round" stroke-width="6"/>
  </g>
</svg>
