<svg id="Layer_1" enable-background="new 0 0 511.399 511.399" height="512" viewBox="0 0 511.399 511.399" width="512" xmlns="http://www.w3.org/2000/svg"><path d="m511.315 339.493c-.299-4.089 5.459 14.282-96.726-292.281-9.406-28.22-35.713-47.181-65.46-47.181h-186.807c-29.747 0-56.052 18.96-65.459 47.181-1.275 3.827-95.29 285.866-95.762 287.315-1.474 4.516-1.042-2.108-1.042 107.841 0 38.047 30.953 69 69 69h373.333c38.047 0 69-30.953 69-69 .001-108.533.039-101.316-.077-102.875zm-374.608-279c3.681-11.043 13.975-18.462 25.615-18.462h186.807c11.641 0 21.934 7.419 25.614 18.462l86.513 259.545h-77.534c-5.569 0-10.91 2.212-14.849 6.15l-36.514 36.51h-153.269l-36.513-36.51c-3.938-3.938-9.279-6.15-14.849-6.15h-77.533zm332.686 381.875c0 14.888-12.112 27-27 27h-373.334c-14.888 0-27-12.112-27-27v-80.33h76.972l36.513 36.51c3.938 3.938 9.279 6.15 14.849 6.15h170.667c5.569 0 10.91-2.212 14.849-6.15l36.514-36.51h76.972v80.33z"/><path d="m211.019 199.133 23.707-22.521v79.085c0 11.598 9.402 21 21 21s21-9.402 21-21v-79.085l23.706 22.521c8.388 7.967 21.679 7.668 29.689-.762 7.987-8.409 7.646-21.701-.762-29.689-63.976-60.776-60.146-57.598-63.851-59.556-7.761-4.09-17.156-2.891-23.647 2.83-1.208 1.065 5.859-5.619-59.769 56.726-8.409 7.988-8.75 21.28-.762 29.689 7.989 8.409 21.28 8.751 29.689.762z"/></svg>