<svg xmlns="http://www.w3.org/2000/svg" width="12" height="13" viewBox="0 0 12 13"><defs><style>.a{fill:#3e3e3e;}</style></defs><path class="a" d="M11.286,8.011,10.3,7.05,5.871,2.723a2.124,2.124,0,0,0-2.948.005,2.006,2.006,0,0,0-.006,2.879l4.43,4.328a.472.472,0,0,0,.656,0,.446.446,0,0,0,0-.641L3.574,4.967a1.114,1.114,0,0,1,0-1.6,1.18,1.18,0,0,1,1.641,0L9.646,7.691l.985.961a2.006,2.006,0,0,1,0,2.885,2.125,2.125,0,0,1-2.954,0l-.82-.8L2.261,6.249l-.328-.32a2.9,2.9,0,0,1,.033-4.134A3.069,3.069,0,0,1,6.2,1.762l4.922,4.807a.472.472,0,0,0,.448.117.459.459,0,0,0,.328-.32.446.446,0,0,0-.12-.438L6.855,1.121a4.012,4.012,0,0,0-5.572.006,3.789,3.789,0,0,0-.006,5.442L6.2,11.376l.821.8a3.069,3.069,0,0,0,4.224-.042A2.9,2.9,0,0,0,11.286,8.011Zm0,0" transform="translate(-0.127 0.001)"/></svg>