<svg xmlns="http://www.w3.org/2000/svg" width="103.5" height="93.21" viewBox="0 0 103.5 93.21">
  <g id="reload3" transform="translate(-61 0)">
    <path id="Subtraction_2" data-name="Subtraction 2" d="M-5643.453,1934.211h-46.894A13.668,13.668,0,0,1-5704,1920.56v-71.367l8.192-8.193,5.461,5.461,5.461-5.461,5.462,5.461,5.461-5.461,5.461,5.461,5.461-5.461,5.462,5.461,5.461-5.461,6.107,6.107a41.109,41.109,0,0,0-29.8,16.1h-17.267v5.461h13.768a40.077,40.077,0,0,0-2.4,5.461h-5.9v5.463h4.4a40.194,40.194,0,0,0-.707,5.461h-3.689v5.461h3.728a40.245,40.245,0,0,0,.788,5.461h-4.516v5.461h6.109A40.187,40.187,0,0,0-5679,1906.9h-14.08v5.461h17.711a41.022,41.022,0,0,0,31.442,15.625v3.49a8.1,8.1,0,0,0,.469,2.73Z" transform="translate(5765 -1841)"/>
    <ellipse id="Ellipse_5" data-name="Ellipse 5" cx="41" cy="40.5" rx="41" ry="40.5" transform="translate(81 6)" fill="none" stroke="#000" stroke-width="3"/>
    <g id="reload" transform="matrix(-0.985, 0.174, -0.174, -0.985, 141.372, 62.446)">
      <path id="Path_16" data-name="Path 16" d="M20.1.111C28.456,1,35.15,7.365,36.1,15.323,37.352,25.73,28.864,34.588,18.224,34.7V39.37a.354.354,0,0,1-.57.235L7.566,32.546a.288.288,0,0,1,0-.478l10.088-7.059a.357.357,0,0,1,.57.235V29.9c7.476-.113,13.464-6.176,12.954-13.421A12.96,12.96,0,0,0,18.87,4.8,13.08,13.08,0,0,0,4.989,15.332a2.481,2.481,0,0,1-2.484,2A2.415,2.415,0,0,1,.03,14.61C1.51,5.72,10.126-.95,20.1.111Z" transform="translate(0 0)"/>
    </g>
  </g>
</svg>
