<svg xmlns="http://www.w3.org/2000/svg" width="89.531" height="103.354" viewBox="0 0 89.531 103.354">
  <g id="reload2" transform="translate(-5972 1841)">
    <path id="Subtraction_1" data-name="Subtraction 1" d="M39.469,91.3h-26.1A13.388,13.388,0,0,1,0,77.932V8.024L8.024,0l5.349,5.349L18.724,0l5.349,5.349L29.42,0l5.353,5.349L40.123,0l5.35,5.349L50.823,0l8.016,8.024v32.9A27.532,27.532,0,0,0,39.466,91.3Z" transform="translate(5972 -1841)"/>
    <ellipse id="Ellipse_3" data-name="Ellipse 3" cx="27.526" cy="27.526" rx="27.526" ry="27.526" transform="translate(6060.294 -1791.802) rotate(106)" fill="none" stroke="#000" stroke-width="2"/>
    <g id="reload" transform="matrix(-0.985, 0.174, -0.174, -0.985, 6047.372, -1758.554)">
      <path id="Path_16" data-name="Path 16" d="M20.1.111C28.456,1,35.15,7.365,36.1,15.323,37.352,25.73,28.864,34.588,18.224,34.7V39.37a.354.354,0,0,1-.57.235L7.566,32.546a.288.288,0,0,1,0-.478l10.088-7.059a.357.357,0,0,1,.57.235V29.9c7.476-.113,13.464-6.176,12.954-13.421A12.96,12.96,0,0,0,18.87,4.8,13.08,13.08,0,0,0,4.989,15.332a2.481,2.481,0,0,1-2.484,2A2.415,2.415,0,0,1,.03,14.61C1.51,5.72,10.126-.95,20.1.111Z" transform="translate(0 0)"/>
    </g>
  </g>
</svg>
